# xmcd
#
# Track frame offsets: 
#        150
#        18742
#        36317
#        50810
#        63328
#        78939
#        97071
#        110991
#        123803
#        135890
#        156568
#        169252
#        181788
#
# Disc length: 2630 seconds
#
# Revision: 0
# Processed by: cddbd v1.4PL0 Copyright (c) Steve Scherf et al.
# Submitted via: ExactAudioCopy v0.90a11
#
DISCID=b40a440d
DTITLE=Ike and Tina Turner - The Great Ike and Tina Turner - Disc 3
DYEAR=1900
DGENRE=
TTITLE0=Philadelphia Freedom
TTITLE1=You Can't Have Your Cake And Eat It Too
TTITLE2=Baby Get It On
TTITLE3=Daily Bread
TTITLE4=Come Together
TTITLE5=He Belongs To Me
TTITLE6=Ooh-Poo-Pah-Do
TTITLE7=I Want To Take You Higher
TTITLE8=We Need An Understanding
TTITLE9=Never Been To Spain
TTITLE10=Country Girl, City Man
TTITLE11=Ya Ya
TTITLE12=Why I Sing The Blues
EXTD=
EXTT0=
EXTT1=
EXTT2=
EXTT3=
EXTT4=
EXTT5=
EXTT6=
EXTT7=
EXTT8=
EXTT9=
EXTT10=
EXTT11=
EXTT12=
PLAYORDER=
